{
  "source": "C:\\Users\\Peter\\Desktop\\stuff\\MIUN\\quantitative_research\\video_compression\\videos\\HEVC_CLASS_B\\BasketballDrive_1920x1080_50.y4m",
  "output": "C:\\Users\\Peter\\Desktop\\stuff\\MIUN\\quantitative_research\\video_compression\\compressed_videos\\HEVC_CLASS_B\\vp9\\2.5\\BasketballDrive_1920x1080_50_vp9.webm",
  "codec": "vp9",
  "ok": "Input #0, yuv4mpegpipe, from 'C:\\Users\\Peter\\Desktop\\stuff\\MIUN\\quantitative_research\\video_compression\\videos\\HEVC_CLASS_B\\BasketballDrive_1920x1080_50.y4m':\n  Duration: 00:00:10.00, start: 0.000000, bitrate: 1244162 kb/s\n  Stream #0:0: Video: rawvideo (I420 / 0x30323449), yuv420p(progressive), 1920x1080, 50 fps, 50 tbr, 50 tbn\n[out#0/webm @ 000001d503c39c80] Codec AVOption b:a (set bitrate (in bits/s)) has not been used for any stream. The most likely reason is either wrong type (e.g. a video option with no video streams) or that it is a private option of some decoder which was not actually used for any stream.\nStream mapping:\n  Stream #0:0 -> #0:0 (rawvideo (native) -> vp9 (libvpx-vp9))\nPress [q] to stop, [?] for help\n[libvpx-vp9 @ 000001d503c3c000] v1.15.2-100-g40561f514\nOutput #0, webm, to 'C:\\Users\\Peter\\Desktop\\stuff\\MIUN\\quantitative_research\\video_compression\\compressed_videos\\HEVC_CLASS_B\\vp9\\2.5\\BasketballDrive_1920x1080_50_vp9.webm':\n  Metadata:\n    encoder         : Lavf62.3.100\n  Stream #0:0: Video: vp9, yuv420p(tv, progressive), 1920x1080, q=2-31, 2500 kb/s, 50 fps, 1k tbn\n    Metadata:\n      encoder         : Lavc62.11.100 libvpx-vp9\n    Side data:\n      cpb: bitrate max/min/avg: 0/0/0 buffer size: 2500000 vbv_delay: N/A\nframe=    0 fps=0.0 q=0.0 size=       0KiB time=N/A bitrate=N/A speed=N/A elapsed=0:00:00.53    \nframe=    3 fps=2.2 q=57.0 size=       0KiB time=00:00:00.06 bitrate=  64.3kbits/s speed=0.0447x elapsed=0:00:01.34    \nframe=    6 fps=3.2 q=56.0 size=       0KiB time=00:00:00.12 bitrate=  32.1kbits/s speed=0.0641x elapsed=0:00:01.87    \nframe=    8 fps=3.2 q=55.0 size=       0KiB time=00:00:00.16 bitrate=  24.1kbits/s speed=0.0644x elapsed=0:00:02.48    \nframe=   11 fps=3.5 q=54.0 size=       0KiB time=00:00:00.20 bitrate=  19.3kbits/s speed=0.0642x elapsed=0:00:03.11    \nframe=   13 fps=3.4 q=53.0 size=       0KiB time=00:00:00.24 bitrate=  16.1kbits/s speed=0.0625x elapsed=0:00:03.83    \nframe=   15 fps=3.2 q=51.0 size=       0KiB time=00:00:00.30 bitrate=  12.9kbits/s speed=0.0647x elapsed=0:00:04.63    \nframe=   17 fps=3.3 q=50.0 size=       0KiB time=00:00:00.34 bitrate=  11.3kbits/s speed=0.0657x elapsed=0:00:05.17    \nframe=   19 fps=3.3 q=50.0 size=       0KiB time=00:00:00.38 bitrate=  10.1kbits/s speed=0.0661x elapsed=0:00:05.75    \nframe=   20 fps=3.1 q=50.0 size=       0KiB time=00:00:00.40 bitrate=   9.6kbits/s speed=0.0623x elapsed=0:00:06.42    \nframe=   22 fps=3.1 q=50.0 size=       0KiB time=00:00:00.44 bitrate=   8.8kbits/s speed=0.0627x elapsed=0:00:07.01    \nframe=   22 fps=2.9 q=50.0 size=       0KiB time=00:00:00.44 bitrate=   8.8kbits/s speed=0.0573x elapsed=0:00:07.67    \nframe=   24 fps=2.9 q=50.0 size=       0KiB time=00:00:00.48 bitrate=   8.0kbits/s speed=0.0577x elapsed=0:00:08.31    \nframe=   26 fps=2.9 q=50.0 size=       0KiB time=00:00:00.52 bitrate=   7.4kbits/s speed=0.0587x elapsed=0:00:08.85    \nframe=   28 fps=3.0 q=52.0 size=       0KiB time=00:00:00.56 bitrate=   6.9kbits/s speed=0.0597x elapsed=0:00:09.38    \nframe=   30 fps=3.0 q=52.0 size=       0KiB time=00:00:00.60 bitrate=   6.4kbits/s speed=0.0602x elapsed=0:00:09.96    \nframe=   32 fps=3.0 q=53.0 size=       0KiB time=00:00:00.64 bitrate=   6.0kbits/s speed=0.0608x elapsed=0:00:10.53    \nframe=   33 fps=3.0 q=53.0 size=       0KiB time=00:00:00.66 bitrate=   5.8kbits/s speed=0.0591x elapsed=0:00:11.17    \nframe=   34 fps=2.9 q=37.0 size=       0KiB time=00:00:00.66 bitrate=   5.8kbits/s speed=0.0563x elapsed=0:00:11.72    \nframe=   36 fps=2.9 q=51.0 size=       0KiB time=00:00:00.72 bitrate=   5.4kbits/s speed=0.0582x elapsed=0:00:12.36    \nframe=   38 fps=2.9 q=51.0 size=       0KiB time=00:00:00.76 bitrate=   5.1kbits/s speed=0.0585x elapsed=0:00:12.99    \nframe=   39 fps=2.9 q=52.0 size=       0KiB time=00:00:00.78 bitrate=   4.9kbits/s speed=0.0577x elapsed=0:00:13.51    \nframe=   40 fps=2.9 q=52.0 size=       0KiB time=00:00:00.80 bitrate=   4.8kbits/s speed=0.0571x elapsed=0:00:14.01    \nframe=   41 fps=2.8 q=52.0 size=       0KiB time=00:00:00.82 bitrate=   4.7kbits/s speed=0.0564x elapsed=0:00:14.53    \nframe=   43 fps=2.9 q=52.0 size=       0KiB time=00:00:00.86 bitrate=   4.5kbits/s speed=0.0572x elapsed=0:00:15.04    \nframe=   44 fps=2.8 q=53.0 size=       0KiB time=00:00:00.88 bitrate=   4.4kbits/s speed=0.0565x elapsed=0:00:15.57    \nframe=   44 fps=2.7 q=53.0 size=       0KiB time=00:00:00.88 bitrate=   4.4kbits/s speed=0.0547x elapsed=0:00:16.08    \nframe=   46 fps=2.8 q=53.0 size=       0KiB time=00:00:00.92 bitrate=   4.2kbits/s speed=0.0554x elapsed=0:00:16.60    \nframe=   47 fps=2.7 q=53.0 size=       0KiB time=00:00:00.94 bitrate=   4.1kbits/s speed=0.0549x elapsed=0:00:17.10    \nframe=   49 fps=2.8 q=54.0 size=       0KiB time=00:00:00.98 bitrate=   3.9kbits/s speed=0.0556x elapsed=0:00:17.62    \nframe=   50 fps=2.8 q=54.0 size=       0KiB time=00:00:01.00 bitrate=   3.9kbits/s speed=0.0551x elapsed=0:00:18.14    \nframe=   51 fps=2.7 q=54.0 size=       0KiB time=00:00:01.02 bitrate=   3.8kbits/s speed=0.0547x elapsed=0:00:18.65    \nframe=   53 fps=2.8 q=55.0 size=       0KiB time=00:00:01.06 bitrate=   3.6kbits/s speed=0.0553x elapsed=0:00:19.18    \nframe=   54 fps=2.7 q=55.0 size=       0KiB time=00:00:01.08 bitrate=   3.6kbits/s speed=0.0548x elapsed=0:00:19.69    \nframe=   55 fps=2.7 q=55.0 size=       0KiB time=00:00:01.10 bitrate=   3.5kbits/s speed=0.0544x elapsed=0:00:20.20    \nframe=   55 fps=2.7 q=55.0 size=       0KiB time=00:00:01.10 bitrate=   3.5kbits/s speed=0.0531x elapsed=0:00:20.72    \nframe=   57 fps=2.7 q=55.0 size=       0KiB time=00:00:01.14 bitrate=   3.4kbits/s speed=0.0537x elapsed=0:00:21.24    \nframe=   59 fps=2.7 q=55.0 size=       0KiB time=00:00:01.18 bitrate=   3.3kbits/s speed=0.0542x elapsed=0:00:21.75    \nframe=   61 fps=2.7 q=55.0 size=       0KiB time=00:00:01.22 bitrate=   3.2kbits/s speed=0.0548x elapsed=0:00:22.27    \nframe=   62 fps=2.7 q=55.0 size=       0KiB time=00:00:01.24 bitrate=   3.1kbits/s speed=0.0544x elapsed=0:00:22.78    \nframe=   64 fps=2.7 q=55.0 size=       0KiB time=00:00:01.28 bitrate=   3.0kbits/s speed=0.0549x elapsed=0:00:23.30    \nframe=   66 fps=2.8 q=56.0 size=       0KiB time=00:00:01.32 bitrate=   2.9kbits/s speed=0.0554x elapsed=0:00:23.81    \nframe=   66 fps=2.7 q=56.0 size=       0KiB time=00:00:01.32 bitrate=   2.9kbits/s speed=0.0542x elapsed=0:00:24.33    \nframe=   68 fps=2.7 q=57.0 size=       0KiB time=00:00:01.36 bitrate=   2.8kbits/s speed=0.0547x elapsed=0:00:24.84    \nframe=   71 fps=2.8 q=57.0 size=       0KiB time=00:00:01.42 bitrate=   2.7kbits/s speed=0.056x elapsed=0:00:25.36    \nframe=   72 fps=2.8 q=57.0 size=       0KiB time=00:00:01.44 bitrate=   2.7kbits/s speed=0.0556x elapsed=0:00:25.88    \nframe=   74 fps=2.8 q=56.0 size=       0KiB time=00:00:01.48 bitrate=   2.6kbits/s speed=0.0561x elapsed=0:00:26.39    \nframe=   76 fps=2.8 q=55.0 size=       0KiB time=00:00:01.52 bitrate=   2.5kbits/s speed=0.0565x elapsed=0:00:26.91    \nframe=   78 fps=2.8 q=55.0 size=       0KiB time=00:00:01.56 bitrate=   2.5kbits/s speed=0.0569x elapsed=0:00:27.42    \nframe=   79 fps=2.8 q=55.0 size=       0KiB time=00:00:01.58 bitrate=   2.4kbits/s speed=0.0565x elapsed=0:00:27.94    \nframe=   81 fps=2.8 q=55.0 size=       0KiB time=00:00:01.62 bitrate=   2.4kbits/s speed=0.0569x elapsed=0:00:28.45    \nframe=   83 fps=2.9 q=55.0 size=       0KiB time=00:00:01.66 bitrate=   2.3kbits/s speed=0.0573x elapsed=0:00:28.97    \nframe=   85 fps=2.9 q=57.0 size=       0KiB time=00:00:01.70 bitrate=   2.3kbits/s speed=0.0576x elapsed=0:00:29.49    \nframe=   87 fps=2.9 q=56.0 size=       0KiB time=00:00:01.74 bitrate=   2.2kbits/s speed=0.058x elapsed=0:00:29.99    \nframe=   89 fps=2.9 q=55.0 size=       0KiB time=00:00:01.78 bitrate=   2.2kbits/s speed=0.0583x elapsed=0:00:30.52    \nframe=   91 fps=2.9 q=55.0 size=       0KiB time=00:00:01.82 bitrate=   2.1kbits/s speed=0.0586x elapsed=0:00:31.03    \nframe=   93 fps=2.9 q=54.0 size=       0KiB time=00:00:01.86 bitrate=   2.1kbits/s speed=0.059x elapsed=0:00:31.55    \nframe=   95 fps=3.0 q=55.0 size=       0KiB time=00:00:01.90 bitrate=   2.0kbits/s speed=0.0592x elapsed=0:00:32.06    \nframe=   96 fps=2.9 q=42.0 size=       0KiB time=00:00:01.92 bitrate=   2.0kbits/s speed=0.0589x elapsed=0:00:32.58    \nframe=   98 fps=3.0 q=55.0 size=       0KiB time=00:00:01.96 bitrate=   2.0kbits/s speed=0.0592x elapsed=0:00:33.09    \nframe=  100 fps=3.0 q=55.0 size=       0KiB time=00:00:02.00 bitrate=   1.9kbits/s speed=0.0595x elapsed=0:00:33.61    \nframe=  101 fps=3.0 q=55.0 size=       0KiB time=00:00:02.02 bitrate=   1.9kbits/s speed=0.0592x elapsed=0:00:34.13    \nframe=  102 fps=2.9 q=55.0 size=       0KiB time=00:00:02.06 bitrate=   1.9kbits/s speed=0.0595x elapsed=0:00:34.64    \nframe=  105 fps=3.0 q=55.0 size=       0KiB time=00:00:02.10 bitrate=   1.8kbits/s speed=0.0597x elapsed=0:00:35.15    \nframe=  107 fps=3.0 q=55.0 size=       0KiB time=00:00:02.14 bitrate=   1.8kbits/s speed=0.06x elapsed=0:00:35.67    \nframe=  107 fps=3.0 q=55.0 size=       0KiB time=00:00:02.14 bitrate=   1.8kbits/s speed=0.0591x elapsed=0:00:36.19    \nframe=  111 fps=3.0 q=55.0 size=       0KiB time=00:00:02.22 bitrate=   1.7kbits/s speed=0.0605x elapsed=0:00:36.71    \nframe=  112 fps=3.0 q=55.0 size=       0KiB time=00:00:02.24 bitrate=   1.7kbits/s speed=0.0602x elapsed=0:00:37.21    \nframe=  113 fps=3.0 q=55.0 size=       0KiB time=00:00:02.26 bitrate=   1.7kbits/s speed=0.0599x elapsed=0:00:37.74    \nframe=  116 fps=3.0 q=54.0 size=       0KiB time=00:00:02.32 bitrate=   1.7kbits/s speed=0.0606x elapsed=0:00:38.25    \nframe=  118 fps=3.0 q=54.0 size=       0KiB time=00:00:02.36 bitrate=   1.6kbits/s speed=0.0609x elapsed=0:00:38.77    \nframe=  119 fps=3.0 q=54.0 size=       0KiB time=00:00:02.38 bitrate=   1.6kbits/s speed=0.0606x elapsed=0:00:39.28    \nframe=  120 fps=3.0 q=31.0 size=       0KiB time=00:00:02.40 bitrate=   1.6kbits/s speed=0.0603x elapsed=0:00:39.80    \nframe=  122 fps=3.0 q=59.0 size=       0KiB time=00:00:02.44 bitrate=   1.6kbits/s speed=0.0605x elapsed=0:00:40.31    \nframe=  125 fps=3.1 q=60.0 size=       0KiB time=00:00:02.50 bitrate=   1.5kbits/s speed=0.0612x elapsed=0:00:40.82    \nframe=  127 fps=3.1 q=60.0 size=       0KiB time=00:00:02.54 bitrate=   1.5kbits/s speed=0.0614x elapsed=0:00:41.34    \nframe=  128 fps=3.1 q=60.0 size=       0KiB time=00:00:02.56 bitrate=   1.5kbits/s speed=0.0612x elapsed=0:00:41.86    \nframe=  129 fps=3.0 q=31.0 size=       0KiB time=00:00:02.58 bitrate=   1.5kbits/s speed=0.0609x elapsed=0:00:42.38    \nframe=  131 fps=3.1 q=53.0 size=     768KiB time=00:00:02.62 bitrate=2401.3kbits/s speed=0.0611x elapsed=0:00:42.89    \nframe=  134 fps=3.1 q=53.0 size=     768KiB time=00:00:02.68 bitrate=2347.6kbits/s speed=0.0617x elapsed=0:00:43.40    \nframe=  137 fps=3.1 q=53.0 size=     768KiB time=00:00:02.74 bitrate=2296.2kbits/s speed=0.0624x elapsed=0:00:43.92    \nframe=  139 fps=3.1 q=53.0 size=     768KiB time=00:00:02.78 bitrate=2263.1kbits/s speed=0.0625x elapsed=0:00:44.44    \nframe=  140 fps=3.1 q=37.0 size=     768KiB time=00:00:02.80 bitrate=2246.9kbits/s speed=0.0623x elapsed=0:00:44.95    \nframe=  143 fps=3.1 q=53.0 size=     768KiB time=00:00:02.86 bitrate=2199.8kbits/s speed=0.0629x elapsed=0:00:45.48    \nframe=  144 fps=3.1 q=53.0 size=     768KiB time=00:00:02.88 bitrate=2184.5kbits/s speed=0.0626x elapsed=0:00:45.98    \nframe=  146 fps=3.1 q=54.0 size=     768KiB time=00:00:02.92 bitrate=2154.6kbits/s speed=0.0628x elapsed=0:00:46.50    \nframe=  148 fps=3.1 q=55.0 size=     768KiB time=00:00:02.96 bitrate=2125.5kbits/s speed=0.063x elapsed=0:00:47.01    \nframe=  150 fps=3.2 q=56.0 size=     768KiB time=00:00:03.00 bitrate=2097.2kbits/s speed=0.0631x elapsed=0:00:47.53    \nframe=  151 fps=3.1 q=42.0 size=     768KiB time=00:00:03.02 bitrate=2083.3kbits/s speed=0.0629x elapsed=0:00:48.04    \nframe=  153 fps=3.1 q=55.0 size=     768KiB time=00:00:03.06 bitrate=2056.0kbits/s speed=0.063x elapsed=0:00:48.57    \nframe=  155 fps=3.2 q=56.0 size=     768KiB time=00:00:03.10 bitrate=2029.5kbits/s speed=0.0632x elapsed=0:00:49.08    \nframe=  156 fps=3.1 q=56.0 size=     768KiB time=00:00:03.12 bitrate=2016.5kbits/s speed=0.0629x elapsed=0:00:49.59    \nframe=  158 fps=3.2 q=55.0 size=     768KiB time=00:00:03.16 bitrate=1991.0kbits/s speed=0.0631x elapsed=0:00:50.11    \nframe=  160 fps=3.2 q=53.0 size=     768KiB time=00:00:03.20 bitrate=1966.1kbits/s speed=0.0632x elapsed=0:00:50.63    \nframe=  162 fps=3.2 q=53.0 size=     768KiB time=00:00:03.24 bitrate=1941.8kbits/s speed=0.0633x elapsed=0:00:51.14    \nframe=  164 fps=3.2 q=53.0 size=     768KiB time=00:00:03.28 bitrate=1918.1kbits/s speed=0.0635x elapsed=0:00:51.66    \nframe=  167 fps=3.2 q=54.0 size=     768KiB time=00:00:03.34 bitrate=1883.7kbits/s speed=0.064x elapsed=0:00:52.17    \nframe=  167 fps=3.2 q=54.0 size=     768KiB time=00:00:03.34 bitrate=1883.7kbits/s speed=0.0634x elapsed=0:00:52.69    \nframe=  170 fps=3.2 q=55.0 size=     768KiB time=00:00:03.40 bitrate=1850.4kbits/s speed=0.0639x elapsed=0:00:53.20    \nframe=  172 fps=3.2 q=55.0 size=     768KiB time=00:00:03.44 bitrate=1828.9kbits/s speed=0.064x elapsed=0:00:53.72    \nframe=  174 fps=3.2 q=55.0 size=     768KiB time=00:00:03.48 bitrate=1807.9kbits/s speed=0.0642x elapsed=0:00:54.23    \nframe=  177 fps=3.2 q=55.0 size=     768KiB time=00:00:03.54 bitrate=1777.2kbits/s speed=0.0647x elapsed=0:00:54.74    \nframe=  178 fps=3.2 q=55.0 size=     768KiB time=00:00:03.56 bitrate=1767.3kbits/s speed=0.0644x elapsed=0:00:55.26    \nframe=  181 fps=3.2 q=54.0 size=     768KiB time=00:00:03.62 bitrate=1738.0kbits/s speed=0.0649x elapsed=0:00:55.77    \nframe=  184 fps=3.3 q=54.0 size=     768KiB time=00:00:03.68 bitrate=1709.6kbits/s speed=0.0654x elapsed=0:00:56.30    \nframe=  186 fps=3.3 q=54.0 size=     768KiB time=00:00:03.72 bitrate=1691.3kbits/s speed=0.0655x elapsed=0:00:56.81    \nframe=  189 fps=3.3 q=55.0 size=     768KiB time=00:00:03.78 bitrate=1664.4kbits/s speed=0.0659x elapsed=0:00:57.33    \nframe=  189 fps=3.3 q=55.0 size=     768KiB time=00:00:03.78 bitrate=1664.4kbits/s speed=0.0653x elapsed=0:00:57.84    \nframe=  193 fps=3.3 q=52.0 size=     768KiB time=00:00:03.86 bitrate=1629.9kbits/s speed=0.0661x elapsed=0:00:58.37    \nframe=  196 fps=3.3 q=53.0 size=     768KiB time=00:00:03.90 bitrate=1613.2kbits/s speed=0.0662x elapsed=0:00:58.87    \nframe=  199 fps=3.3 q=53.0 size=     768KiB time=00:00:03.98 bitrate=1580.8kbits/s speed=0.067x elapsed=0:00:59.42    \nframe=  200 fps=3.3 q=53.0 size=     768KiB time=00:00:04.00 bitrate=1572.9kbits/s speed=0.0666x elapsed=0:01:00.03    \nframe=  204 fps=3.4 q=52.0 size=     768KiB time=00:00:04.08 bitrate=1542.0kbits/s speed=0.0673x elapsed=0:01:00.63    \nframe=  207 fps=3.4 q=54.0 size=     768KiB time=00:00:04.12 bitrate=1527.1kbits/s speed=0.0673x elapsed=0:01:01.18    \nframe=  209 fps=3.4 q=54.0 size=     768KiB time=00:00:04.18 bitrate=1505.1kbits/s speed=0.0677x elapsed=0:01:01.76    \nframe=  211 fps=3.4 q=55.0 size=     768KiB time=00:00:04.22 bitrate=1490.9kbits/s speed=0.0677x elapsed=0:01:02.30    \nframe=  214 fps=3.4 q=55.0 size=     768KiB time=00:00:04.28 bitrate=1470.0kbits/s speed=0.0681x elapsed=0:01:02.84    \nframe=  217 fps=3.4 q=55.0 size=     768KiB time=00:00:04.34 bitrate=1449.6kbits/s speed=0.0684x elapsed=0:01:03.43    \nframe=  218 fps=3.4 q=43.0 size=     768KiB time=00:00:04.36 bitrate=1443.0kbits/s speed=0.0681x elapsed=0:01:03.97    \nframe=  221 fps=3.4 q=55.0 size=     768KiB time=00:00:04.42 bitrate=1423.4kbits/s speed=0.0685x elapsed=0:01:04.49    \nframe=  223 fps=3.4 q=54.0 size=     768KiB time=00:00:04.46 bitrate=1410.6kbits/s speed=0.0686x elapsed=0:01:05.03    \nframe=  226 fps=3.4 q=53.0 size=     768KiB time=00:00:04.52 bitrate=1391.9kbits/s speed=0.0689x elapsed=0:01:05.59    \nframe=  229 fps=3.5 q=52.0 size=     768KiB time=00:00:04.58 bitrate=1373.7kbits/s speed=0.0692x elapsed=0:01:06.19    \nframe=  231 fps=3.5 q=51.0 size=     768KiB time=00:00:04.62 bitrate=1361.8kbits/s speed=0.0691x elapsed=0:01:06.81    \nframe=  234 fps=3.5 q=50.0 size=     768KiB time=00:00:04.68 bitrate=1344.3kbits/s speed=0.0695x elapsed=0:01:07.32    \nframe=  235 fps=3.5 q=50.0 size=     768KiB time=00:00:04.70 bitrate=1338.6kbits/s speed=0.0692x elapsed=0:01:07.88    \nframe=  236 fps=3.4 q=27.0 size=     768KiB time=00:00:04.72 bitrate=1332.9kbits/s speed=0.069x elapsed=0:01:08.42    \nframe=  239 fps=3.5 q=55.0 size=     768KiB time=00:00:04.78 bitrate=1316.2kbits/s speed=0.0693x elapsed=0:01:08.94    \nframe=  243 fps=3.5 q=56.0 size=     768KiB time=00:00:04.86 bitrate=1294.5kbits/s speed=0.0699x elapsed=0:01:09.51    \nframe=  246 fps=3.5 q=57.0 size=     768KiB time=00:00:04.92 bitrate=1278.8kbits/s speed=0.0702x elapsed=0:01:10.09    \nframe=  247 fps=3.5 q=39.0 size=     768KiB time=00:00:04.94 bitrate=1273.6kbits/s speed=0.07x elapsed=0:01:10.60    \nframe=  251 fps=3.5 q=52.0 size=     768KiB time=00:00:05.00 bitrate=1258.3kbits/s speed=0.0703x elapsed=0:01:11.15    \nframe=  254 fps=3.5 q=53.0 size=     768KiB time=00:00:05.08 bitrate=1238.5kbits/s speed=0.0708x elapsed=0:01:11.70    \nframe=  256 fps=3.5 q=53.0 size=     768KiB time=00:00:05.12 bitrate=1228.8kbits/s speed=0.0709x elapsed=0:01:12.24    \nframe=  258 fps=3.5 q=53.0 size=    1536KiB time=00:00:05.14 bitrate=2448.0kbits/s speed=0.0706x elapsed=0:01:12.78    \nframe=  262 fps=3.6 q=53.0 size=    1536KiB time=00:00:05.24 bitrate=2401.3kbits/s speed=0.0713x elapsed=0:01:13.44    \nframe=  265 fps=3.6 q=52.0 size=    1536KiB time=00:00:05.30 bitrate=2374.1kbits/s speed=0.0716x elapsed=0:01:14.01    \nframe=  268 fps=3.6 q=52.0 size=    1536KiB time=00:00:05.36 bitrate=2347.6kbits/s speed=0.0719x elapsed=0:01:14.57    \nframe=  270 fps=3.6 q=52.0 size=    1536KiB time=00:00:05.38 bitrate=2338.8kbits/s speed=0.0716x elapsed=0:01:15.13    \nframe=  273 fps=3.6 q=51.0 size=    1536KiB time=00:00:05.46 bitrate=2304.6kbits/s speed=0.0721x elapsed=0:01:15.69    \nframe=  274 fps=3.6 q=51.0 size=    1536KiB time=00:00:05.48 bitrate=2296.2kbits/s speed=0.0719x elapsed=0:01:16.25    \nframe=  277 fps=3.6 q=54.0 size=    1536KiB time=00:00:05.52 bitrate=2279.5kbits/s speed=0.0719x elapsed=0:01:16.76    \nframe=  280 fps=3.6 q=56.0 size=    1536KiB time=00:00:05.60 bitrate=2246.9kbits/s speed=0.0724x elapsed=0:01:17.34    \nframe=  284 fps=3.6 q=57.0 size=    1536KiB time=00:00:05.68 bitrate=2215.3kbits/s speed=0.0729x elapsed=0:01:17.86    \nframe=  285 fps=3.6 q=58.0 size=    1536KiB time=00:00:05.70 bitrate=2207.5kbits/s speed=0.0727x elapsed=0:01:18.38    \nframe=  288 fps=3.6 q=52.0 size=    1536KiB time=00:00:05.76 bitrate=2184.5kbits/s speed=0.073x elapsed=0:01:18.93    \nframe=  291 fps=3.7 q=53.0 size=    1536KiB time=00:00:05.82 bitrate=2162.0kbits/s speed=0.0732x elapsed=0:01:19.46    \nframe=  294 fps=3.7 q=53.0 size=    1536KiB time=00:00:05.88 bitrate=2140.0kbits/s speed=0.0735x elapsed=0:01:20.01    \nframe=  296 fps=3.7 q=54.0 size=    1536KiB time=00:00:05.92 bitrate=2125.5kbits/s speed=0.0735x elapsed=0:01:20.57    \nframe=  298 fps=3.7 q=55.0 size=    1536KiB time=00:00:05.96 bitrate=2111.2kbits/s speed=0.0735x elapsed=0:01:21.10    \nframe=  301 fps=3.7 q=55.0 size=    1536KiB time=00:00:06.02 bitrate=2090.2kbits/s speed=0.0737x elapsed=0:01:21.63    \nframe=  302 fps=3.7 q=56.0 size=    1536KiB time=00:00:06.04 bitrate=2083.3kbits/s speed=0.0735x elapsed=0:01:22.22    \nframe=  305 fps=3.7 q=55.0 size=    1536KiB time=00:00:06.10 bitrate=2062.8kbits/s speed=0.0737x elapsed=0:01:22.81    \nframe=  308 fps=3.7 q=56.0 size=    1536KiB time=00:00:06.16 bitrate=2042.7kbits/s speed=0.0739x elapsed=0:01:23.37    \nframe=  309 fps=3.7 q=37.0 size=    1536KiB time=00:00:06.18 bitrate=2036.1kbits/s speed=0.0736x elapsed=0:01:23.95    \nframe=  312 fps=3.7 q=56.0 size=    1536KiB time=00:00:06.24 bitrate=2016.5kbits/s speed=0.0738x elapsed=0:01:24.50    \nframe=  315 fps=3.7 q=56.0 size=    1536KiB time=00:00:06.28 bitrate=2003.6kbits/s speed=0.0738x elapsed=0:01:25.08    \nframe=  317 fps=3.7 q=56.0 size=    1536KiB time=00:00:06.34 bitrate=1984.7kbits/s speed=0.074x elapsed=0:01:25.65    \nframe=  319 fps=3.7 q=56.0 size=    1536KiB time=00:00:06.38 bitrate=1972.2kbits/s speed=0.074x elapsed=0:01:26.21    \nframe=  320 fps=3.7 q=36.0 size=    1536KiB time=00:00:06.40 bitrate=1966.1kbits/s speed=0.0738x elapsed=0:01:26.77    \nframe=  323 fps=3.7 q=55.0 size=    1536KiB time=00:00:06.46 bitrate=1947.8kbits/s speed=0.074x elapsed=0:01:27.33    \nframe=  326 fps=3.7 q=57.0 size=    1536KiB time=00:00:06.50 bitrate=1935.8kbits/s speed=0.074x elapsed=0:01:27.86    \nframe=  328 fps=3.7 q=57.0 size=    1536KiB time=00:00:06.56 bitrate=1918.1kbits/s speed=0.0742x elapsed=0:01:28.44    \nframe=  330 fps=3.7 q=57.0 size=    1536KiB time=00:00:06.60 bitrate=1906.5kbits/s speed=0.0742x elapsed=0:01:28.95    \nframe=  334 fps=3.7 q=53.0 size=    1536KiB time=00:00:06.68 bitrate=1883.7kbits/s speed=0.0746x elapsed=0:01:29.51    \nframe=  336 fps=3.7 q=53.0 size=    1536KiB time=00:00:06.72 bitrate=1872.5kbits/s speed=0.0745x elapsed=0:01:30.16    \nframe=  340 fps=3.7 q=52.0 size=    1536KiB time=00:00:06.80 bitrate=1850.4kbits/s speed=0.0749x elapsed=0:01:30.73    \nframe=  342 fps=3.7 q=52.0 size=    1536KiB time=00:00:06.84 bitrate=1839.6kbits/s speed=0.0749x elapsed=0:01:31.27    \nframe=  345 fps=3.8 q=54.0 size=    1536KiB time=00:00:06.88 bitrate=1828.9kbits/s speed=0.0749x elapsed=0:01:31.81    \nframe=  349 fps=3.8 q=54.0 size=    1536KiB time=00:00:06.98 bitrate=1802.7kbits/s speed=0.0755x elapsed=0:01:32.39    \nframe=  352 fps=3.8 q=54.0 size=    1536KiB time=00:00:07.04 bitrate=1787.3kbits/s speed=0.0757x elapsed=0:01:32.96    \nframe=  354 fps=3.8 q=30.0 size=    1536KiB time=00:00:07.08 bitrate=1777.2kbits/s speed=0.0757x elapsed=0:01:33.54    \nframe=  357 fps=3.8 q=53.0 size=    1536KiB time=00:00:07.14 bitrate=1762.3kbits/s speed=0.0759x elapsed=0:01:34.08    \nframe=  361 fps=3.8 q=54.0 size=    1536KiB time=00:00:07.20 bitrate=1747.6kbits/s speed=0.0761x elapsed=0:01:34.67    \nframe=  364 fps=3.8 q=55.0 size=    1536KiB time=00:00:07.28 bitrate=1728.4kbits/s speed=0.0764x elapsed=0:01:35.25    \nframe=  366 fps=3.8 q=50.0 size=    1536KiB time=00:00:07.30 bitrate=1723.7kbits/s speed=0.0762x elapsed=0:01:35.80    \nframe=  368 fps=3.8 q=50.0 size=    1536KiB time=00:00:07.36 bitrate=1709.6kbits/s speed=0.0763x elapsed=0:01:36.43    \nframe=  371 fps=3.8 q=51.0 size=    1536KiB time=00:00:07.42 bitrate=1695.8kbits/s speed=0.0765x elapsed=0:01:37.01    \nframe=  373 fps=3.8 q=51.0 size=    1536KiB time=00:00:07.46 bitrate=1686.7kbits/s speed=0.0765x elapsed=0:01:37.54    \nframe=  375 fps=3.8 q=52.0 size=    1536KiB time=00:00:07.50 bitrate=1677.7kbits/s speed=0.0765x elapsed=0:01:38.09    \nframe=  377 fps=3.8 q=51.0 size=    1536KiB time=00:00:07.54 bitrate=1668.8kbits/s speed=0.0764x elapsed=0:01:38.70    \nframe=  380 fps=3.8 q=48.0 size=    1536KiB time=00:00:07.60 bitrate=1655.6kbits/s speed=0.0766x elapsed=0:01:39.26    \nframe=  382 fps=3.8 q=48.0 size=    1536KiB time=00:00:07.64 bitrate=1647.0kbits/s speed=0.0765x elapsed=0:01:39.82    \nframe=  384 fps=3.8 q=48.0 size=    1536KiB time=00:00:07.68 bitrate=1638.4kbits/s speed=0.0765x elapsed=0:01:40.40    \nframe=  386 fps=3.8 q=52.0 size=    2304KiB time=00:00:07.72 bitrate=2444.9kbits/s speed=0.0764x elapsed=0:01:41.01    \nframe=  389 fps=3.8 q=51.0 size=    2304KiB time=00:00:07.78 bitrate=2426.0kbits/s speed=0.0766x elapsed=0:01:41.52    \nframe=  392 fps=3.8 q=51.0 size=    2304KiB time=00:00:07.84 bitrate=2407.4kbits/s speed=0.0768x elapsed=0:01:42.08    \nframe=  395 fps=3.8 q=53.0 size=    2304KiB time=00:00:07.90 bitrate=2389.2kbits/s speed=0.077x elapsed=0:01:42.63    \nframe=  398 fps=3.9 q=51.0 size=    2304KiB time=00:00:07.94 bitrate=2377.1kbits/s speed=0.0769x elapsed=0:01:43.19    \nframe=  400 fps=3.9 q=51.0 size=    2304KiB time=00:00:08.00 bitrate=2359.3kbits/s speed=0.0771x elapsed=0:01:43.77    \nframe=  402 fps=3.9 q=41.0 size=    2304KiB time=00:00:08.02 bitrate=2353.4kbits/s speed=0.0769x elapsed=0:01:44.32    \nframe=  405 fps=3.9 q=52.0 size=    2304KiB time=00:00:08.10 bitrate=2330.2kbits/s speed=0.0772x elapsed=0:01:44.94    \nframe=  407 fps=3.9 q=52.0 size=    2304KiB time=00:00:08.14 bitrate=2318.7kbits/s speed=0.0771x elapsed=0:01:45.51    \nframe=  410 fps=3.9 q=52.0 size=    2304KiB time=00:00:08.20 bitrate=2301.8kbits/s speed=0.0773x elapsed=0:01:46.04    \nframe=  413 fps=3.9 q=53.0 size=    2304KiB time=00:00:08.26 bitrate=2285.0kbits/s speed=0.0775x elapsed=0:01:46.62    \nframe=  415 fps=3.9 q=53.0 size=    2304KiB time=00:00:08.30 bitrate=2274.0kbits/s speed=0.0774x elapsed=0:01:47.19    \nframe=  418 fps=3.9 q=52.0 size=    2304KiB time=00:00:08.36 bitrate=2257.7kbits/s speed=0.0776x elapsed=0:01:47.75    \nframe=  419 fps=3.9 q=53.0 size=    2304KiB time=00:00:08.38 bitrate=2252.3kbits/s speed=0.0774x elapsed=0:01:48.30    \nframe=  422 fps=3.9 q=53.0 size=    2304KiB time=00:00:08.44 bitrate=2236.3kbits/s speed=0.0775x elapsed=0:01:48.86    \nframe=  425 fps=3.9 q=55.0 size=    2304KiB time=00:00:08.50 bitrate=2220.5kbits/s speed=0.0777x elapsed=0:01:49.40    \nframe=  425 fps=3.9 q=55.0 size=    2304KiB time=00:00:08.50 bitrate=2220.5kbits/s speed=0.0773x elapsed=0:01:49.92    \nframe=  428 fps=3.9 q=53.0 size=    2304KiB time=00:00:08.54 bitrate=2210.1kbits/s speed=0.0773x elapsed=0:01:50.45    \nframe=  430 fps=3.9 q=54.0 size=    2304KiB time=00:00:08.60 bitrate=2194.7kbits/s speed=0.0774x elapsed=0:01:51.05    \nframe=  432 fps=3.9 q=55.0 size=    2304KiB time=00:00:08.64 bitrate=2184.5kbits/s speed=0.0774x elapsed=0:01:51.58    \nframe=  435 fps=3.9 q=55.0 size=    2304KiB time=00:00:08.70 bitrate=2169.5kbits/s speed=0.0776x elapsed=0:01:52.10    \nframe=  436 fps=3.9 q=55.0 size=    2304KiB time=00:00:08.72 bitrate=2164.5kbits/s speed=0.0774x elapsed=0:01:52.65    \nframe=  438 fps=3.9 q=58.0 size=    2304KiB time=00:00:08.76 bitrate=2154.6kbits/s speed=0.0774x elapsed=0:01:53.21    \nframe=  441 fps=3.9 q=56.0 size=    2304KiB time=00:00:08.82 bitrate=2140.0kbits/s speed=0.0775x elapsed=0:01:53.77    \nframe=  443 fps=3.9 q=57.0 size=    2304KiB time=00:00:08.86 bitrate=2130.3kbits/s speed=0.0775x elapsed=0:01:54.31    \nframe=  446 fps=3.9 q=58.0 size=    2304KiB time=00:00:08.92 bitrate=2116.0kbits/s speed=0.0777x elapsed=0:01:54.85    \nframe=  448 fps=3.9 q=44.0 size=    2304KiB time=00:00:08.94 bitrate=2111.2kbits/s speed=0.0775x elapsed=0:01:55.41    \nframe=  451 fps=3.9 q=55.0 size=    2304KiB time=00:00:09.02 bitrate=2092.5kbits/s speed=0.0778x elapsed=0:01:55.94    \nframe=  453 fps=3.9 q=55.0 size=    2304KiB time=00:00:09.06 bitrate=2083.3kbits/s speed=0.0778x elapsed=0:01:56.48    \nframe=  456 fps=3.9 q=54.0 size=    2304KiB time=00:00:09.12 bitrate=2069.6kbits/s speed=0.0779x elapsed=0:01:57.00    \nframe=  459 fps=3.9 q=54.0 size=    2304KiB time=00:00:09.18 bitrate=2056.0kbits/s speed=0.0781x elapsed=0:01:57.59    \nframe=  460 fps=3.9 q=31.0 size=    2304KiB time=00:00:09.20 bitrate=2051.6kbits/s speed=0.0779x elapsed=0:01:58.15    \nframe=  463 fps=3.9 q=57.0 size=    2304KiB time=00:00:09.26 bitrate=2038.3kbits/s speed=0.078x elapsed=0:01:58.71    \nframe=  466 fps=3.9 q=57.0 size=    2304KiB time=00:00:09.32 bitrate=2025.1kbits/s speed=0.0781x elapsed=0:01:59.25    \nframe=  468 fps=3.9 q=57.0 size=    2304KiB time=00:00:09.36 bitrate=2016.5kbits/s speed=0.0781x elapsed=0:01:59.79    \nframe=  470 fps=3.9 q=57.0 size=    2304KiB time=00:00:09.40 bitrate=2007.9kbits/s speed=0.0781x elapsed=0:02:00.31    \nframe=  472 fps=3.9 q=52.0 size=    2304KiB time=00:00:09.44 bitrate=1999.4kbits/s speed=0.0781x elapsed=0:02:00.92    \nframe=  474 fps=3.9 q=52.0 size=    2304KiB time=00:00:09.48 bitrate=1991.0kbits/s speed=0.078x elapsed=0:02:01.54    \nframe=  476 fps=3.9 q=53.0 size=    2304KiB time=00:00:09.52 bitrate=1982.6kbits/s speed=0.078x elapsed=0:02:02.07    \nframe=  476 fps=3.9 q=53.0 size=    2304KiB time=00:00:09.52 bitrate=1982.6kbits/s speed=0.0777x elapsed=0:02:02.59    \nframe=  476 fps=3.9 q=53.0 size=    2304KiB time=00:00:09.52 bitrate=1982.6kbits/s speed=0.0773x elapsed=0:02:03.10    \nframe=  476 fps=3.9 q=53.0 size=    2304KiB time=00:00:09.52 bitrate=1982.6kbits/s speed=0.077x elapsed=0:02:03.62    \nframe=  476 fps=3.8 q=53.0 size=    2304KiB time=00:00:09.52 bitrate=1982.6kbits/s speed=0.0767x elapsed=0:02:04.17    \nframe=  476 fps=3.8 q=53.0 size=    2304KiB time=00:00:09.52 bitrate=1982.6kbits/s speed=0.0763x elapsed=0:02:04.77    \nframe=  476 fps=3.8 q=53.0 size=    2304KiB time=00:00:09.52 bitrate=1982.6kbits/s speed=0.0759x elapsed=0:02:05.40    \nframe=  476 fps=3.8 q=53.0 size=    2304KiB time=00:00:09.52 bitrate=1982.6kbits/s speed=0.0756x elapsed=0:02:05.90    \nframe=  476 fps=3.8 q=53.0 size=    2304KiB time=00:00:09.52 bitrate=1982.6kbits/s speed=0.0753x elapsed=0:02:06.42    \nframe=  476 fps=3.7 q=53.0 size=    2304KiB time=00:00:09.52 bitrate=1982.6kbits/s speed=0.075x elapsed=0:02:06.94    \nframe=  476 fps=3.7 q=53.0 size=    2304KiB time=00:00:09.52 bitrate=1982.6kbits/s speed=0.0747x elapsed=0:02:07.45    \n[out#0/webm @ 000001d503c39c80] video:3224KiB audio:0KiB subtitle:0KiB other streams:0KiB global headers:0KiB muxing overhead: 0.125711%\nframe=  500 fps=3.9 q=54.0 Lsize=    3228KiB time=00:00:10.00 bitrate=2644.3kbits/s speed=0.0782x elapsed=0:02:07.93    \n",
  "seconds": 129.17533016204834,
  "probe_out": {}
}